<svg width="15" height="15" viewBox="0 0 15 15" fill="none" xmlns="http://www.w3.org/2000/svg">
<path d="M7.5 2.01562C8.9901 2.01562 9.17602 2.02111 9.76066 2.04853C10.3447 2.07595 10.7424 2.16754 11.0923 2.30355C11.4542 2.44286 11.7592 2.63152 12.0641 2.9359C12.343 3.21006 12.5588 3.5417 12.6964 3.90773C12.8319 4.25709 12.924 4.65525 12.9515 5.23934C12.9772 5.82397 12.9844 6.0099 12.9844 7.5C12.9844 8.9901 12.9789 9.17602 12.9515 9.76066C12.924 10.3447 12.8319 10.7424 12.6964 11.0923C12.5592 11.4585 12.3433 11.7902 12.0641 12.0641C11.7899 12.3429 11.4582 12.5587 11.0923 12.6964C10.7429 12.8319 10.3447 12.924 9.76066 12.9515C9.17602 12.9772 8.9901 12.9844 7.5 12.9844C6.0099 12.9844 5.82397 12.9789 5.23934 12.9515C4.65525 12.924 4.25764 12.8319 3.90773 12.6964C3.54156 12.559 3.20986 12.3432 2.9359 12.0641C2.65697 11.79 2.44117 11.4583 2.30355 11.0923C2.16754 10.7429 2.07595 10.3447 2.04853 9.76066C2.02275 9.17602 2.01562 8.9901 2.01562 7.5C2.01562 6.0099 2.02111 5.82397 2.04853 5.23934C2.07595 4.65471 2.16754 4.25764 2.30355 3.90773C2.44079 3.54148 2.65664 3.20975 2.9359 2.9359C3.20994 2.65688 3.54161 2.44106 3.90773 2.30355C4.25764 2.16754 4.65471 2.07595 5.23934 2.04853C5.82397 2.02275 6.0099 2.01562 7.5 2.01562ZM7.5 4.75781C6.77273 4.75781 6.07524 5.04672 5.56098 5.56098C5.04672 6.07524 4.75781 6.77273 4.75781 7.5C4.75781 8.22727 5.04672 8.92476 5.56098 9.43902C6.07524 9.95328 6.77273 10.2422 7.5 10.2422C8.22727 10.2422 8.92476 9.95328 9.43902 9.43902C9.95328 8.92476 10.2422 8.22727 10.2422 7.5C10.2422 6.77273 9.95328 6.07524 9.43902 5.56098C8.92476 5.04672 8.22727 4.75781 7.5 4.75781ZM11.0648 4.6207C11.0648 4.43888 10.9926 4.26451 10.8641 4.13595C10.7355 4.00738 10.5611 3.93516 10.3793 3.93516C10.1975 3.93516 10.0231 4.00738 9.89454 4.13595C9.76598 4.26451 9.69375 4.43888 9.69375 4.6207C9.69375 4.80252 9.76598 4.97689 9.89454 5.10546C10.0231 5.23402 10.1975 5.30625 10.3793 5.30625C10.5611 5.30625 10.7355 5.23402 10.8641 5.10546C10.9926 4.97689 11.0648 4.80252 11.0648 4.6207ZM7.5 5.85469C7.93636 5.85469 8.35486 6.02803 8.66341 6.33659C8.97197 6.64514 9.14531 7.06364 9.14531 7.5C9.14531 7.93636 8.97197 8.35486 8.66341 8.66341C8.35486 8.97197 7.93636 9.14531 7.5 9.14531C7.06364 9.14531 6.64514 8.97197 6.33659 8.66341C6.02803 8.35486 5.85469 7.93636 5.85469 7.5C5.85469 7.06364 6.02803 6.64514 6.33659 6.33659C6.64514 6.02803 7.06364 5.85469 7.5 5.85469Z" fill="#191D0A"/>
</svg>
