<svg width="15" height="15" viewBox="0 0 15 15" fill="none" xmlns="http://www.w3.org/2000/svg">
<path d="M2.33203 3.07234C2.33203 2.66343 2.67183 2.33203 3.09108 2.33203H11.9089C12.3282 2.33203 12.668 2.66343 12.668 3.07234V11.9277C12.668 12.3366 12.3282 12.668 11.9089 12.668H3.09108C2.67183 12.668 2.33203 12.3366 2.33203 11.9277V3.07234ZM5.52519 10.9845V6.31718H3.97415V10.9845H5.52519ZM4.74999 5.67958C5.29069 5.67958 5.62726 5.3217 5.62726 4.87338C5.61757 4.41537 5.29134 4.06718 4.76033 4.06718C4.22932 4.06718 3.88242 4.41601 3.88242 4.87338C3.88242 5.3217 4.21899 5.67958 4.73966 5.67958H4.74999ZM7.92054 10.9845V8.37791C7.92054 8.23837 7.93088 8.09884 7.97222 7.99935C8.08398 7.72093 8.33915 7.43217 8.76809 7.43217C9.32946 7.43217 9.55362 7.85982 9.55362 8.48773V10.9845H11.1047V8.3075C11.1047 6.87338 10.3398 6.20672 9.31913 6.20672C8.49613 6.20672 8.12726 6.65891 7.92054 6.97739V6.99354H7.91021C7.91364 6.98815 7.91708 6.98276 7.92054 6.97739V6.31718H6.37015C6.38953 6.75517 6.37015 10.9845 6.37015 10.9845H7.92054Z" fill="#191D0A"/>
</svg>
