<svg width="15" height="15" viewBox="0 0 15 15" fill="none" xmlns="http://www.w3.org/2000/svg">
<path d="M11.4181 3.3927C11.4181 3.3927 12.3742 3.01987 12.2942 3.92524C12.2679 4.29808 12.0289 5.60311 11.8429 7.01446L11.2055 11.1956C11.2055 11.1956 11.1523 11.8081 10.6742 11.9147C10.1963 12.021 9.47916 11.5418 9.34627 11.4353C9.23996 11.3553 7.35439 10.1568 6.69042 9.57113C6.50438 9.41117 6.29175 9.09174 6.717 8.7189L9.50549 6.05568C9.82418 5.73625 10.1429 4.99058 8.81495 5.89596L5.09647 8.42581C5.09647 8.42581 4.67147 8.69233 3.87487 8.45263L2.14827 7.91984C2.14827 7.91984 1.51089 7.52043 2.59985 7.12102C5.25594 5.86939 8.52284 4.59117 11.4176 3.3927H11.4181Z" fill="#191D0A"/>
</svg>
