<svg width="15" height="15" viewBox="0 0 15 15" fill="none" xmlns="http://www.w3.org/2000/svg">
<path fill-rule="evenodd" clip-rule="evenodd" d="M8.3543 2.37402C8.66884 2.37402 8.92383 2.62901 8.92383 2.94355C8.92383 3.54775 9.16385 4.1272 9.59108 4.55443C10.0183 4.98166 10.5978 5.22168 11.202 5.22168C11.5165 5.22168 11.7715 5.47667 11.7715 5.79121C11.7715 6.10575 11.5165 6.36074 11.202 6.36074C10.3592 6.36074 9.54863 6.04946 8.92383 5.49058V9.77793C8.92383 10.3411 8.75682 10.8917 8.44391 11.36C8.13101 11.8283 7.68627 12.1933 7.16592 12.4088C6.64558 12.6244 6.07301 12.6807 5.52062 12.5709C4.96823 12.461 4.46083 12.1898 4.06258 11.7915C3.66432 11.3933 3.39311 10.8859 3.28323 10.3335C3.17336 9.78109 3.22975 9.20852 3.44528 8.68818C3.66081 8.16784 4.02581 7.72309 4.4941 7.41019C4.96239 7.09729 5.51296 6.93027 6.07617 6.93027C6.39072 6.93027 6.6457 7.18526 6.6457 7.4998C6.6457 7.81435 6.39072 8.06934 6.07617 8.06934C5.73825 8.06934 5.40791 8.16954 5.12693 8.35729C4.84595 8.54503 4.62696 8.81187 4.49764 9.12408C4.36832 9.43628 4.33448 9.77982 4.40041 10.1113C4.46634 10.4427 4.62906 10.7471 4.86802 10.9861C5.10697 11.225 5.41141 11.3878 5.74284 11.4537C6.07428 11.5196 6.41782 11.4858 6.73002 11.3565C7.04223 11.2271 7.30907 11.0082 7.49682 10.7272C7.68456 10.4462 7.78477 10.1159 7.78477 9.77793V2.94355C7.78477 2.62901 8.03976 2.37402 8.3543 2.37402Z" fill="#191D0A"/>
</svg>
