<svg width="15" height="15" viewBox="0 0 15 15" fill="none" xmlns="http://www.w3.org/2000/svg">
<path d="M11.9818 5.42312V5.73888C11.9818 8.9186 9.65878 12.5625 5.40811 12.5625C4.15326 12.5653 2.92506 12.1866 1.875 11.4731C2.05736 11.4988 2.24132 11.5104 2.42534 11.5078C3.46551 11.5108 4.47643 11.1505 5.29561 10.4848C4.81237 10.4774 4.34367 10.312 3.95612 10.0121C3.56857 9.71225 3.28189 9.29316 3.13682 8.8144C3.28077 8.84609 3.42752 8.86196 3.57466 8.86176C3.78013 8.86181 3.98467 8.83314 4.18277 8.77651C3.65937 8.66815 3.18849 8.37427 2.85071 7.94515C2.51293 7.51602 2.32924 6.97834 2.33108 6.42409V6.39251C2.65131 6.57828 3.01033 6.68016 3.37703 6.68933C2.8889 6.35574 2.54185 5.84118 2.40678 5.25078C2.27172 4.66038 2.35884 4.0387 2.65034 3.51277C3.23116 4.25465 3.95582 4.86128 4.77721 5.29323C5.5986 5.72517 6.49833 5.97277 7.4179 6.01991C7.37239 5.84069 7.3509 5.65581 7.35405 5.47049C7.33693 4.98071 7.46558 4.49736 7.72248 4.08624C7.97938 3.67512 8.35204 3.35622 8.78973 3.17295C9.22742 2.98969 9.70887 2.95096 10.1685 3.06206C10.6282 3.17315 11.0437 3.42866 11.3584 3.7938C11.8759 3.68535 12.3722 3.48792 12.827 3.20964C12.6546 3.77528 12.2877 4.25522 11.7963 4.55794C12.2553 4.49226 12.7028 4.35826 13.125 4.16008C12.819 4.64813 12.4319 5.0758 11.9818 5.42312Z" fill="#191D0A"/>
</svg>
