<svg width="15" height="15" viewBox="0 0 15 15" fill="none"
  xmlns="http://www.w3.org/2000/svg">
  <path fill-rule="evenodd" clip-rule="evenodd" d="M1.85646 4.58091C1.90757 4.50646 1.98932 4.4624 2.07634 4.4624H3.94255C4.04718 4.4624 4.14251 4.52592 4.18764 4.62571C4.30114 4.87672 4.41146 5.13062 4.52059 5.3818C4.77397 5.96499 5.02098 6.53352 5.28677 7.01707C5.47512 7.35976 5.66304 7.64028 5.85469 7.83947C5.93581 7.92377 6.01452 7.99037 6.09127 8.04071V5.66074L5.53232 4.93004C5.46651 4.844 5.45332 4.72565 5.49842 4.62581C5.54352 4.52597 5.63888 4.4624 5.74356 4.4624H8.33778C8.48781 4.4624 8.60943 4.59095 8.60943 4.74952V7.43873C8.91972 7.11523 9.16252 6.74654 9.38425 6.35127C9.51189 6.12374 9.63018 5.89189 9.75149 5.65415C9.78081 5.59668 9.8103 5.53887 9.84015 5.48069C9.9919 5.1849 10.151 4.88302 10.3331 4.59139C10.3834 4.51086 10.4686 4.4624 10.5598 4.4624H12.3473C12.4316 4.4624 12.5111 4.50375 12.5625 4.57433C12.6139 4.64491 12.6314 4.73673 12.6099 4.82286C12.2677 6.19214 11.6016 7.14855 10.9664 8.06053C10.9414 8.09655 10.9163 8.13251 10.8913 8.16842C11.7536 8.98396 12.4447 9.98291 12.9185 11.1009C12.9561 11.1897 12.9486 11.2927 12.8985 11.3744C12.8485 11.4561 12.7626 11.5054 12.6705 11.5054H10.7038C10.6387 11.5054 10.5757 11.4806 10.5264 11.4357C10.3186 11.2462 10.1398 11.0388 9.97498 10.8406C9.94125 10.8 9.90828 10.7601 9.87581 10.7207C9.74623 10.5637 9.62451 10.4161 9.49346 10.2772C9.24238 10.011 8.97243 9.79374 8.60943 9.67197V11.2183C8.60943 11.3629 8.50769 11.4849 8.37197 11.5031C6.16627 11.7989 4.6829 10.6528 3.68369 9.18522C2.72334 7.7747 2.18803 6.03844 1.84904 4.93893C1.83854 4.90487 1.82823 4.87141 1.8181 4.8386C1.7911 4.75117 1.80536 4.65535 1.85646 4.58091ZM2.45095 5.03664C2.79198 6.13135 3.29225 7.62719 4.12466 8.84981C5.01 10.1501 6.24874 11.1126 8.06614 10.9594V9.31181C8.06614 9.22811 8.1007 9.14857 8.16077 9.09403C8.22084 9.03948 8.30044 9.01536 8.37873 9.02797C9.06039 9.13783 9.50915 9.48053 9.87819 9.87174C10.0234 10.0256 10.1601 10.1914 10.2907 10.3499C10.3219 10.3876 10.3526 10.4249 10.3831 10.4616C10.5222 10.6288 10.6587 10.787 10.8072 10.9312H12.2384C11.772 9.97561 11.1305 9.12577 10.3497 8.43191C10.2406 8.33495 10.221 8.16534 10.3047 8.04343C10.3793 7.93498 10.4537 7.82785 10.5278 7.72135C11.1027 6.89435 11.6509 6.10585 11.9837 5.03664H10.708C10.5708 5.26726 10.4445 5.50725 10.3177 5.75442C10.2893 5.80993 10.2607 5.86595 10.2319 5.9223C10.1102 6.16088 9.98541 6.40556 9.85158 6.64414C9.51838 7.2381 9.11491 7.8217 8.49538 8.2881C8.41255 8.35045 8.30371 8.35869 8.21332 8.30945C8.12293 8.2602 8.06614 8.16172 8.06614 8.05424V5.03664H6.31252L6.57415 5.37867C6.61324 5.42977 6.63456 5.49348 6.63456 5.55919V8.44472C6.63456 8.52664 6.60145 8.60466 6.54357 8.65914C6.48569 8.71362 6.40854 8.73937 6.33155 8.72992C5.99937 8.68911 5.71549 8.50014 5.47377 8.24891C5.2324 7.99804 5.01607 7.66772 4.817 7.30553C4.53749 6.79702 4.27243 6.18706 4.01396 5.59227C3.93229 5.40432 3.85127 5.21788 3.77066 5.03664H2.45095Z" fill="#191D0A"/>
  <path d="M4.12466 8.84981C3.29225 7.62719 2.79198 6.13135 2.45095 5.03664H3.77066C3.85127 5.21788 3.93229 5.40432 4.01396 5.59227C4.27243 6.18706 4.53749 6.79702 4.817 7.30553C5.01607 7.66772 5.2324 7.99804 5.47377 8.24891C5.71549 8.50014 5.99937 8.68911 6.33155 8.72992C6.40854 8.73937 6.48569 8.71362 6.54357 8.65914C6.60145 8.60466 6.63456 8.52664 6.63456 8.44472V5.55919C6.63456 5.49348 6.61324 5.42977 6.57415 5.37867L6.31252 5.03664H8.06614V8.05424C8.06614 8.16172 8.12293 8.2602 8.21332 8.30945C8.30371 8.35869 8.41255 8.35045 8.49538 8.2881C9.11491 7.8217 9.51838 7.2381 9.85158 6.64414C9.98541 6.40556 10.1102 6.16088 10.2319 5.9223C10.2607 5.86595 10.2893 5.80993 10.3177 5.75442C10.4445 5.50725 10.5708 5.26726 10.708 5.03664H11.9837C11.6509 6.10585 11.1027 6.89435 10.5278 7.72135C10.4537 7.82785 10.3793 7.93498 10.3047 8.04343C10.221 8.16534 10.2406 8.33495 10.3497 8.43191C11.1305 9.12577 11.772 9.97561 12.2384 10.9312H10.8072C10.6587 10.787 10.5222 10.6288 10.3831 10.4616C10.3526 10.4249 10.3219 10.3876 10.2907 10.3499C10.1601 10.1914 10.0234 10.0256 9.87819 9.87174C9.50915 9.48053 9.06039 9.13783 8.37873 9.02797C8.30044 9.01536 8.22084 9.03948 8.16077 9.09403C8.1007 9.14857 8.06614 9.22811 8.06614 9.31181V10.9594C6.24874 11.1126 5.01 10.1501 4.12466 8.84981Z" fill="#191D0A"/>
</svg>
