<svg width="15" height="15" viewBox="0 0 15 15" fill="none"
  xmlns="http://www.w3.org/2000/svg">
  <path d="M6.375 9.1875L9.29437 7.5L6.375 5.8125V9.1875ZM12.8775 4.78313C12.9506 5.0475 13.0013 5.40188 13.035 5.85188C13.0744 6.30188 13.0913 6.69 13.0913 7.0275L13.125 7.5C13.125 8.73188 13.035 9.6375 12.8775 10.2169C12.7369 10.7231 12.4106 11.0494 11.9044 11.19C11.64 11.2631 11.1562 11.3138 10.4137 11.3475C9.6825 11.3869 9.01312 11.4038 8.39437 11.4038L7.5 11.4375C5.14313 11.4375 3.675 11.3475 3.09563 11.19C2.58938 11.0494 2.26313 10.7231 2.1225 10.2169C2.04938 9.9525 1.99875 9.59813 1.965 9.14813C1.92563 8.69813 1.90875 8.31 1.90875 7.9725L1.875 7.5C1.875 6.26813 1.965 5.3625 2.1225 4.78313C2.26313 4.27688 2.58938 3.95063 3.09563 3.81C3.36 3.73688 3.84375 3.68625 4.58625 3.6525C5.3175 3.61312 5.98688 3.59625 6.60563 3.59625L7.5 3.5625C9.85687 3.5625 11.325 3.6525 11.9044 3.81C12.4106 3.95063 12.7369 4.27688 12.8775 4.78313Z" fill="#191D0A"/>
</svg>
