<svg aria-hidden="true" style="position: absolute; width: 0; height: 0; overflow: hidden;" version="1.1"
  xmlns="http://www.w3.org/2000/svg"
  xmlns:xlink="http://www.w3.org/1999/xlink">
  <defs>
    <symbol id="close" viewBox="0 0 28 28">
      <path d="M22.1666 7.47825L20.5216 5.83325L13.9999 12.3549L7.47825 5.83325L5.83325 7.47825L12.3549 13.9999L5.83325 20.5216L7.47825 22.1666L13.9999 15.6449L20.5216 22.1666L22.1666 20.5216L15.6449 13.9999L22.1666 7.47825Z" />
    </symbol>
    <symbol id="planet" viewBox="0 0 20 20">
      <path d="M17.7115 4.6486C15.9987 2.30028 13.7515 0.968835 10.7944 0.625C12.1778 2.22713 13.1293 3.96093 13.7369 5.89958C15.1203 5.61427 16.4305 5.24117 17.7115 4.6486Z" />
      <path d="M5.31257 6.9036C4.78751 6.76628 4.27746 6.63289 3.77486 6.47753C3.32573 6.33258 2.88257 6.1667 2.43966 6.00092C2.18962 5.90733 1.93967 5.81377 1.68876 5.72402C0.202865 8.3357 0.341938 12.0447 1.68144 14.2321C2.42998 13.9969 3.17243 13.7616 3.92163 13.5243L3.923 13.5238C4.59448 13.3111 5.27181 13.0965 5.96344 12.8787C5.56818 10.9766 5.5755 9.01606 5.97076 7.07741C5.74843 7.01759 5.52921 6.96025 5.31257 6.9036Z" />
      <path d="M16.1823 6.44809C15.4687 6.67486 14.7544 6.90184 14.0371 7.12861C14.4324 9.04531 14.4177 10.9913 14.0371 12.8714C15.4864 13.3323 16.8991 13.7785 18.3264 14.2248C19.7318 11.8179 19.7172 8.16011 18.3264 5.7679C17.6093 5.99463 16.8958 6.22136 16.1823 6.44809Z" />
      <path d="M7.14925 12.7836C6.73935 10.9254 6.75399 9.10383 7.12729 7.28224C7.42576 7.29979 7.71897 7.32062 8.00849 7.3412C8.6845 7.38924 9.34069 7.43587 9.9966 7.43587C10.6525 7.43587 11.3084 7.38926 11.9843 7.34122C12.2738 7.32065 12.5675 7.29978 12.8659 7.28224C13.2685 9.07457 13.2539 10.9108 12.8586 12.7763C10.9408 12.5276 9.067 12.5129 7.14925 12.7836Z" />
      <path d="M17.7116 15.3441C16.0134 17.6924 13.759 19.0165 10.8018 19.375C12.1633 17.7802 13.1368 16.0537 13.7297 14.1077C15.1058 14.3711 16.4087 14.7661 17.7116 15.3441Z" />
      <path d="M9.19867 0.625C6.24152 0.976151 3.98706 2.3076 2.23034 4.72907C3.60644 5.15338 4.90202 5.55574 6.24152 5.97273C6.86369 3.9463 7.82989 2.22713 9.19867 0.625Z" />
      <path d="M9.19867 19.375C6.24884 19.0238 4.0017 17.6997 2.23034 15.2709C2.66907 15.1356 3.0996 15.0026 3.52599 14.8708L3.52785 14.8703C4.43821 14.5889 5.32971 14.3134 6.24152 14.0346C6.86369 16.0391 7.81525 17.7729 9.19867 19.375Z" />
      <path d="M12.551 6.07516C12.002 4.35599 11.1602 2.85628 9.99639 1.49557C8.82524 2.87823 7.97616 4.37062 7.44914 6.07516C9.16927 6.30195 10.8382 6.30926 12.551 6.07516Z" />
      <path d="M10.0037 18.5044C8.83988 17.151 7.99812 15.6513 7.44914 13.9321C9.15463 13.6907 10.8235 13.698 12.5583 13.9248C12.0093 15.6367 11.1675 17.1291 10.0037 18.5044Z" />
    </symbol>
    <symbol id="menu" viewBox="0 0 28 28">
      <path d="M4.66667 21H23.3333C23.975 21 24.5 20.475 24.5 19.8333C24.5 19.1917 23.975 18.6667 23.3333 18.6667H4.66667C4.025 18.6667 3.5 19.1917 3.5 19.8333C3.5 20.475 4.025 21 4.66667 21ZM4.66667 15.1667H23.3333C23.975 15.1667 24.5 14.6417 24.5 14C24.5 13.3583 23.975 12.8333 23.3333 12.8333H4.66667C4.025 12.8333 3.5 13.3583 3.5 14C3.5 14.6417 4.025 15.1667 4.66667 15.1667ZM3.5 8.16667C3.5 8.80833 4.025 9.33333 4.66667 9.33333H23.3333C23.975 9.33333 24.5 8.80833 24.5 8.16667C24.5 7.525 23.975 7 23.3333 7H4.66667C4.025 7 3.5 7.525 3.5 8.16667Z" />
    </symbol>
    <symbol id="youtube" viewBox="0 0 15 15">
      <path d="M6.375 9.1875L9.29437 7.5L6.375 5.8125V9.1875ZM12.8775 4.78313C12.9506 5.0475 13.0013 5.40188 13.035 5.85188C13.0744 6.30188 13.0913 6.69 13.0913 7.0275L13.125 7.5C13.125 8.73188 13.035 9.6375 12.8775 10.2169C12.7369 10.7231 12.4106 11.0494 11.9044 11.19C11.64 11.2631 11.1562 11.3138 10.4137 11.3475C9.6825 11.3869 9.01312 11.4038 8.39437 11.4038L7.5 11.4375C5.14313 11.4375 3.675 11.3475 3.09563 11.19C2.58938 11.0494 2.26313 10.7231 2.1225 10.2169C2.04938 9.9525 1.99875 9.59813 1.965 9.14813C1.92563 8.69813 1.90875 8.31 1.90875 7.9725L1.875 7.5C1.875 6.26813 1.965 5.3625 2.1225 4.78313C2.26313 4.27688 2.58938 3.95063 3.09563 3.81C3.36 3.73688 3.84375 3.68625 4.58625 3.6525C5.3175 3.61312 5.98688 3.59625 6.60563 3.59625L7.5 3.5625C9.85687 3.5625 11.325 3.6525 11.9044 3.81C12.4106 3.95063 12.7369 4.27688 12.8775 4.78313Z"/>
    </symbol>
    <symbol id="facebook" viewBox="0 0 15 15">
      <path d="M9.24928 3.74276H10.3068V1.95401C9.79476 1.90077 9.2803 1.87448 8.76553 1.87526C7.23553 1.87526 6.18928 2.80901 6.18928 4.51901V5.99276H4.4624V7.99526H6.18928V13.1253H8.25928V7.99526H9.98053L10.2393 5.99276H8.25928V4.71589C8.25928 4.12526 8.41678 3.74276 9.24928 3.74276Z" />
    </symbol>
    <symbol id="twitter" viewBox="0 0 15 15">
      <path d="M11.9818 5.42312V5.73888C11.9818 8.9186 9.65878 12.5625 5.40811 12.5625C4.15326 12.5653 2.92506 12.1866 1.875 11.4731C2.05736 11.4988 2.24132 11.5104 2.42534 11.5078C3.46551 11.5108 4.47643 11.1505 5.29561 10.4848C4.81237 10.4774 4.34367 10.312 3.95612 10.0121C3.56857 9.71225 3.28189 9.29316 3.13682 8.8144C3.28077 8.84609 3.42752 8.86196 3.57466 8.86176C3.78013 8.86181 3.98467 8.83314 4.18277 8.77651C3.65937 8.66815 3.18849 8.37427 2.85071 7.94515C2.51293 7.51602 2.32924 6.97834 2.33108 6.42409V6.39251C2.65131 6.57828 3.01033 6.68016 3.37703 6.68933C2.8889 6.35574 2.54185 5.84118 2.40678 5.25078C2.27172 4.66038 2.35884 4.0387 2.65034 3.51277C3.23116 4.25465 3.95582 4.86128 4.77721 5.29323C5.5986 5.72517 6.49833 5.97277 7.4179 6.01991C7.37239 5.84069 7.3509 5.65581 7.35405 5.47049C7.33693 4.98071 7.46558 4.49736 7.72248 4.08624C7.97938 3.67512 8.35204 3.35622 8.78973 3.17295C9.22742 2.98969 9.70887 2.95096 10.1685 3.06206C10.6282 3.17315 11.0437 3.42866 11.3584 3.7938C11.8759 3.68535 12.3722 3.48792 12.827 3.20964C12.6546 3.77528 12.2877 4.25522 11.7963 4.55794C12.2553 4.49226 12.7028 4.35826 13.125 4.16008C12.819 4.64813 12.4319 5.0758 11.9818 5.42312Z" />
    </symbol>
    <symbol id="instagram" viewBox="0 0 15 15">
      <path d="M7.5 2.01562C8.9901 2.01562 9.17602 2.02111 9.76066 2.04853C10.3447 2.07595 10.7424 2.16754 11.0923 2.30355C11.4542 2.44286 11.7592 2.63152 12.0641 2.9359C12.343 3.21006 12.5588 3.5417 12.6964 3.90773C12.8319 4.25709 12.924 4.65525 12.9515 5.23934C12.9772 5.82397 12.9844 6.0099 12.9844 7.5C12.9844 8.9901 12.9789 9.17602 12.9515 9.76066C12.924 10.3447 12.8319 10.7424 12.6964 11.0923C12.5592 11.4585 12.3433 11.7902 12.0641 12.0641C11.7899 12.3429 11.4582 12.5587 11.0923 12.6964C10.7429 12.8319 10.3447 12.924 9.76066 12.9515C9.17602 12.9772 8.9901 12.9844 7.5 12.9844C6.0099 12.9844 5.82397 12.9789 5.23934 12.9515C4.65525 12.924 4.25764 12.8319 3.90773 12.6964C3.54156 12.559 3.20986 12.3432 2.9359 12.0641C2.65697 11.79 2.44117 11.4583 2.30355 11.0923C2.16754 10.7429 2.07595 10.3447 2.04853 9.76066C2.02275 9.17602 2.01562 8.9901 2.01562 7.5C2.01562 6.0099 2.02111 5.82397 2.04853 5.23934C2.07595 4.65471 2.16754 4.25764 2.30355 3.90773C2.44079 3.54148 2.65664 3.20975 2.9359 2.9359C3.20994 2.65688 3.54161 2.44106 3.90773 2.30355C4.25764 2.16754 4.65471 2.07595 5.23934 2.04853C5.82397 2.02275 6.0099 2.01562 7.5 2.01562ZM7.5 4.75781C6.77273 4.75781 6.07524 5.04672 5.56098 5.56098C5.04672 6.07524 4.75781 6.77273 4.75781 7.5C4.75781 8.22727 5.04672 8.92476 5.56098 9.43902C6.07524 9.95328 6.77273 10.2422 7.5 10.2422C8.22727 10.2422 8.92476 9.95328 9.43902 9.43902C9.95328 8.92476 10.2422 8.22727 10.2422 7.5C10.2422 6.77273 9.95328 6.07524 9.43902 5.56098C8.92476 5.04672 8.22727 4.75781 7.5 4.75781ZM11.0648 4.6207C11.0648 4.43888 10.9926 4.26451 10.8641 4.13595C10.7355 4.00738 10.5611 3.93516 10.3793 3.93516C10.1975 3.93516 10.0231 4.00738 9.89454 4.13595C9.76598 4.26451 9.69375 4.43888 9.69375 4.6207C9.69375 4.80252 9.76598 4.97689 9.89454 5.10546C10.0231 5.23402 10.1975 5.30625 10.3793 5.30625C10.5611 5.30625 10.7355 5.23402 10.8641 5.10546C10.9926 4.97689 11.0648 4.80252 11.0648 4.6207ZM7.5 5.85469C7.93636 5.85469 8.35486 6.02803 8.66341 6.33659C8.97197 6.64514 9.14531 7.06364 9.14531 7.5C9.14531 7.93636 8.97197 8.35486 8.66341 8.66341C8.35486 8.97197 7.93636 9.14531 7.5 9.14531C7.06364 9.14531 6.64514 8.97197 6.33659 8.66341C6.02803 8.35486 5.85469 7.93636 5.85469 7.5C5.85469 7.06364 6.02803 6.64514 6.33659 6.33659C6.64514 6.02803 7.06364 5.85469 7.5 5.85469Z" />
    </symbol>
    <symbol id="linkedin" viewBox="0 0 15 15">
      <path d="M2.33203 3.07234C2.33203 2.66343 2.67183 2.33203 3.09108 2.33203H11.9089C12.3282 2.33203 12.668 2.66343 12.668 3.07234V11.9277C12.668 12.3366 12.3282 12.668 11.9089 12.668H3.09108C2.67183 12.668 2.33203 12.3366 2.33203 11.9277V3.07234ZM5.52519 10.9845V6.31718H3.97415V10.9845H5.52519ZM4.74999 5.67958C5.29069 5.67958 5.62726 5.3217 5.62726 4.87338C5.61757 4.41537 5.29134 4.06718 4.76033 4.06718C4.22932 4.06718 3.88242 4.41601 3.88242 4.87338C3.88242 5.3217 4.21899 5.67958 4.73966 5.67958H4.74999ZM7.92054 10.9845V8.37791C7.92054 8.23837 7.93088 8.09884 7.97222 7.99935C8.08398 7.72093 8.33915 7.43217 8.76809 7.43217C9.32946 7.43217 9.55362 7.85982 9.55362 8.48773V10.9845H11.1047V8.3075C11.1047 6.87338 10.3398 6.20672 9.31913 6.20672C8.49613 6.20672 8.12726 6.65891 7.92054 6.97739V6.99354H7.91021C7.91364 6.98815 7.91708 6.98276 7.92054 6.97739V6.31718H6.37015C6.38953 6.75517 6.37015 10.9845 6.37015 10.9845H7.92054Z" />
    </symbol>
    <symbol id="vk" viewBox="0 0 15 15">
      <path fill-rule="evenodd" clip-rule="evenodd" d="M1.85646 4.58091C1.90757 4.50646 1.98932 4.4624 2.07634 4.4624H3.94255C4.04718 4.4624 4.14251 4.52592 4.18764 4.62571C4.30114 4.87672 4.41146 5.13062 4.52059 5.3818C4.77397 5.96499 5.02098 6.53352 5.28677 7.01707C5.47512 7.35976 5.66304 7.64028 5.85469 7.83947C5.93581 7.92377 6.01452 7.99037 6.09127 8.04071V5.66074L5.53232 4.93004C5.46651 4.844 5.45332 4.72565 5.49842 4.62581C5.54352 4.52597 5.63888 4.4624 5.74356 4.4624H8.33778C8.48781 4.4624 8.60943 4.59095 8.60943 4.74952V7.43873C8.91972 7.11523 9.16252 6.74654 9.38425 6.35127C9.51189 6.12374 9.63018 5.89189 9.75149 5.65415C9.78081 5.59668 9.8103 5.53887 9.84015 5.48069C9.9919 5.1849 10.151 4.88302 10.3331 4.59139C10.3834 4.51086 10.4686 4.4624 10.5598 4.4624H12.3473C12.4316 4.4624 12.5111 4.50375 12.5625 4.57433C12.6139 4.64491 12.6314 4.73673 12.6099 4.82286C12.2677 6.19214 11.6016 7.14855 10.9664 8.06053C10.9414 8.09655 10.9163 8.13251 10.8913 8.16842C11.7536 8.98396 12.4447 9.98291 12.9185 11.1009C12.9561 11.1897 12.9486 11.2927 12.8985 11.3744C12.8485 11.4561 12.7626 11.5054 12.6705 11.5054H10.7038C10.6387 11.5054 10.5757 11.4806 10.5264 11.4357C10.3186 11.2462 10.1398 11.0388 9.97498 10.8406C9.94125 10.8 9.90828 10.7601 9.87581 10.7207C9.74623 10.5637 9.62451 10.4161 9.49346 10.2772C9.24238 10.011 8.97243 9.79374 8.60943 9.67197V11.2183C8.60943 11.3629 8.50769 11.4849 8.37197 11.5031C6.16627 11.7989 4.6829 10.6528 3.68369 9.18522C2.72334 7.7747 2.18803 6.03844 1.84904 4.93893C1.83854 4.90487 1.82823 4.87141 1.8181 4.8386C1.7911 4.75117 1.80536 4.65535 1.85646 4.58091ZM2.45095 5.03664C2.79198 6.13135 3.29225 7.62719 4.12466 8.84981C5.01 10.1501 6.24874 11.1126 8.06614 10.9594V9.31181C8.06614 9.22811 8.1007 9.14857 8.16077 9.09403C8.22084 9.03948 8.30044 9.01536 8.37873 9.02797C9.06039 9.13783 9.50915 9.48053 9.87819 9.87174C10.0234 10.0256 10.1601 10.1914 10.2907 10.3499C10.3219 10.3876 10.3526 10.4249 10.3831 10.4616C10.5222 10.6288 10.6587 10.787 10.8072 10.9312H12.2384C11.772 9.97561 11.1305 9.12577 10.3497 8.43191C10.2406 8.33495 10.221 8.16534 10.3047 8.04343C10.3793 7.93498 10.4537 7.82785 10.5278 7.72135C11.1027 6.89435 11.6509 6.10585 11.9837 5.03664H10.708C10.5708 5.26726 10.4445 5.50725 10.3177 5.75442C10.2893 5.80993 10.2607 5.86595 10.2319 5.9223C10.1102 6.16088 9.98541 6.40556 9.85158 6.64414C9.51838 7.2381 9.11491 7.8217 8.49538 8.2881C8.41255 8.35045 8.30371 8.35869 8.21332 8.30945C8.12293 8.2602 8.06614 8.16172 8.06614 8.05424V5.03664H6.31252L6.57415 5.37867C6.61324 5.42977 6.63456 5.49348 6.63456 5.55919V8.44472C6.63456 8.52664 6.60145 8.60466 6.54357 8.65914C6.48569 8.71362 6.40854 8.73937 6.33155 8.72992C5.99937 8.68911 5.71549 8.50014 5.47377 8.24891C5.2324 7.99804 5.01607 7.66772 4.817 7.30553C4.53749 6.79702 4.27243 6.18706 4.01396 5.59227C3.93229 5.40432 3.85127 5.21788 3.77066 5.03664H2.45095Z" />
      <path d="M4.12466 8.84981C3.29225 7.62719 2.79198 6.13135 2.45095 5.03664H3.77066C3.85127 5.21788 3.93229 5.40432 4.01396 5.59227C4.27243 6.18706 4.53749 6.79702 4.817 7.30553C5.01607 7.66772 5.2324 7.99804 5.47377 8.24891C5.71549 8.50014 5.99937 8.68911 6.33155 8.72992C6.40854 8.73937 6.48569 8.71362 6.54357 8.65914C6.60145 8.60466 6.63456 8.52664 6.63456 8.44472V5.55919C6.63456 5.49348 6.61324 5.42977 6.57415 5.37867L6.31252 5.03664H8.06614V8.05424C8.06614 8.16172 8.12293 8.2602 8.21332 8.30945C8.30371 8.35869 8.41255 8.35045 8.49538 8.2881C9.11491 7.8217 9.51838 7.2381 9.85158 6.64414C9.98541 6.40556 10.1102 6.16088 10.2319 5.9223C10.2607 5.86595 10.2893 5.80993 10.3177 5.75442C10.4445 5.50725 10.5708 5.26726 10.708 5.03664H11.9837C11.6509 6.10585 11.1027 6.89435 10.5278 7.72135C10.4537 7.82785 10.3793 7.93498 10.3047 8.04343C10.221 8.16534 10.2406 8.33495 10.3497 8.43191C11.1305 9.12577 11.772 9.97561 12.2384 10.9312H10.8072C10.6587 10.787 10.5222 10.6288 10.3831 10.4616C10.3526 10.4249 10.3219 10.3876 10.2907 10.3499C10.1601 10.1914 10.0234 10.0256 9.87819 9.87174C9.50915 9.48053 9.06039 9.13783 8.37873 9.02797C8.30044 9.01536 8.22084 9.03948 8.16077 9.09403C8.1007 9.14857 8.06614 9.22811 8.06614 9.31181V10.9594C6.24874 11.1126 5.01 10.1501 4.12466 8.84981Z" />
    </symbol>
    <symbol id="telegram" viewBox="0 0 15 15">
      <path d="M11.4181 3.3927C11.4181 3.3927 12.3742 3.01987 12.2942 3.92524C12.2679 4.29808 12.0289 5.60311 11.8429 7.01446L11.2055 11.1956C11.2055 11.1956 11.1523 11.8081 10.6742 11.9147C10.1963 12.021 9.47916 11.5418 9.34627 11.4353C9.23996 11.3553 7.35439 10.1568 6.69042 9.57113C6.50438 9.41117 6.29175 9.09174 6.717 8.7189L9.50549 6.05568C9.82418 5.73625 10.1429 4.99058 8.81495 5.89596L5.09647 8.42581C5.09647 8.42581 4.67147 8.69233 3.87487 8.45263L2.14827 7.91984C2.14827 7.91984 1.51089 7.52043 2.59985 7.12102C5.25594 5.86939 8.52284 4.59117 11.4176 3.3927H11.4181Z" />
    </symbol>
    <symbol id="tiktok" viewBox="0 0 15 15">
      <path fill-rule="evenodd" clip-rule="evenodd" d="M8.3543 2.37402C8.66884 2.37402 8.92383 2.62901 8.92383 2.94355C8.92383 3.54775 9.16385 4.1272 9.59108 4.55443C10.0183 4.98166 10.5978 5.22168 11.202 5.22168C11.5165 5.22168 11.7715 5.47667 11.7715 5.79121C11.7715 6.10575 11.5165 6.36074 11.202 6.36074C10.3592 6.36074 9.54863 6.04946 8.92383 5.49058V9.77793C8.92383 10.3411 8.75682 10.8917 8.44391 11.36C8.13101 11.8283 7.68627 12.1933 7.16592 12.4088C6.64558 12.6244 6.07301 12.6807 5.52062 12.5709C4.96823 12.461 4.46083 12.1898 4.06258 11.7915C3.66432 11.3933 3.39311 10.8859 3.28323 10.3335C3.17336 9.78109 3.22975 9.20852 3.44528 8.68818C3.66081 8.16784 4.02581 7.72309 4.4941 7.41019C4.96239 7.09729 5.51296 6.93027 6.07617 6.93027C6.39072 6.93027 6.6457 7.18526 6.6457 7.4998C6.6457 7.81435 6.39072 8.06934 6.07617 8.06934C5.73825 8.06934 5.40791 8.16954 5.12693 8.35729C4.84595 8.54503 4.62696 8.81187 4.49764 9.12408C4.36832 9.43628 4.33448 9.77982 4.40041 10.1113C4.46634 10.4427 4.62906 10.7471 4.86802 10.9861C5.10697 11.225 5.41141 11.3878 5.74284 11.4537C6.07428 11.5196 6.41782 11.4858 6.73002 11.3565C7.04223 11.2271 7.30907 11.0082 7.49682 10.7272C7.68456 10.4462 7.78477 10.1159 7.78477 9.77793V2.94355C7.78477 2.62901 8.03976 2.37402 8.3543 2.37402Z" />
    </symbol>
  </defs>
</svg>
